<mxfile host="app.diagrams.net" modified="2022-05-28T11:20:36.957Z" agent="5.0 (X11; Linux x86_64) AppleWebKit/537.36 (KHTML, like Gecko) Chrome/102.0.5005.61 Safari/537.36" etag="8TlgHyqw4sm0aDqlf7N8" version="18.1.3" type="github">
  <diagram id="R2lEEEUBdFMjLlhIrx00" name="Page-1">
    <mxGraphModel dx="2272" dy="1875" grid="1" gridSize="10" guides="1" tooltips="1" connect="1" arrows="1" fold="1" page="1" pageScale="1" pageWidth="850" pageHeight="1100" math="0" shadow="0" extFonts="Permanent Marker^https://fonts.googleapis.com/css?family=Permanent+Marker">
      <root>
        <mxCell id="0" />
        <mxCell id="1" parent="0" />
        <mxCell id="AtcaAhYzGhv9QXCL_KbO-3" value="" style="edgeStyle=orthogonalEdgeStyle;rounded=0;orthogonalLoop=1;jettySize=auto;html=1;" edge="1" parent="1" source="AtcaAhYzGhv9QXCL_KbO-1" target="AtcaAhYzGhv9QXCL_KbO-2">
          <mxGeometry relative="1" as="geometry" />
        </mxCell>
        <mxCell id="AtcaAhYzGhv9QXCL_KbO-7" value="" style="edgeStyle=orthogonalEdgeStyle;rounded=0;orthogonalLoop=1;jettySize=auto;html=1;" edge="1" parent="1" source="AtcaAhYzGhv9QXCL_KbO-1" target="AtcaAhYzGhv9QXCL_KbO-6">
          <mxGeometry relative="1" as="geometry">
            <Array as="points">
              <mxPoint x="-430" y="230" />
              <mxPoint x="-430" y="230" />
            </Array>
          </mxGeometry>
        </mxCell>
        <mxCell id="AtcaAhYzGhv9QXCL_KbO-9" value="" style="edgeStyle=orthogonalEdgeStyle;rounded=0;orthogonalLoop=1;jettySize=auto;html=1;" edge="1" parent="1" source="AtcaAhYzGhv9QXCL_KbO-1" target="AtcaAhYzGhv9QXCL_KbO-8">
          <mxGeometry relative="1" as="geometry" />
        </mxCell>
        <mxCell id="AtcaAhYzGhv9QXCL_KbO-12" value="" style="edgeStyle=orthogonalEdgeStyle;rounded=0;orthogonalLoop=1;jettySize=auto;html=1;" edge="1" parent="1" source="AtcaAhYzGhv9QXCL_KbO-1" target="AtcaAhYzGhv9QXCL_KbO-11">
          <mxGeometry relative="1" as="geometry" />
        </mxCell>
        <mxCell id="AtcaAhYzGhv9QXCL_KbO-22" style="edgeStyle=orthogonalEdgeStyle;rounded=0;orthogonalLoop=1;jettySize=auto;html=1;exitX=1;exitY=1;exitDx=0;exitDy=0;" edge="1" parent="1" source="AtcaAhYzGhv9QXCL_KbO-1" target="AtcaAhYzGhv9QXCL_KbO-23">
          <mxGeometry relative="1" as="geometry">
            <mxPoint x="-240" y="340" as="targetPoint" />
          </mxGeometry>
        </mxCell>
        <mxCell id="AtcaAhYzGhv9QXCL_KbO-24" style="edgeStyle=orthogonalEdgeStyle;rounded=0;orthogonalLoop=1;jettySize=auto;html=1;exitX=0;exitY=1;exitDx=0;exitDy=0;" edge="1" parent="1" source="AtcaAhYzGhv9QXCL_KbO-1" target="AtcaAhYzGhv9QXCL_KbO-25">
          <mxGeometry relative="1" as="geometry">
            <mxPoint x="-480" y="300" as="targetPoint" />
          </mxGeometry>
        </mxCell>
        <mxCell id="AtcaAhYzGhv9QXCL_KbO-26" style="edgeStyle=orthogonalEdgeStyle;rounded=0;orthogonalLoop=1;jettySize=auto;html=1;exitX=1;exitY=0;exitDx=0;exitDy=0;" edge="1" parent="1" source="AtcaAhYzGhv9QXCL_KbO-1" target="AtcaAhYzGhv9QXCL_KbO-27">
          <mxGeometry relative="1" as="geometry">
            <mxPoint x="-270" y="140" as="targetPoint" />
          </mxGeometry>
        </mxCell>
        <mxCell id="AtcaAhYzGhv9QXCL_KbO-28" style="edgeStyle=orthogonalEdgeStyle;rounded=0;orthogonalLoop=1;jettySize=auto;html=1;exitX=0;exitY=0;exitDx=0;exitDy=0;" edge="1" parent="1" source="AtcaAhYzGhv9QXCL_KbO-1" target="AtcaAhYzGhv9QXCL_KbO-29">
          <mxGeometry relative="1" as="geometry">
            <mxPoint x="-480" y="170" as="targetPoint" />
          </mxGeometry>
        </mxCell>
        <mxCell id="AtcaAhYzGhv9QXCL_KbO-1" value="patinet reagistration" style="rounded=1;whiteSpace=wrap;html=1;" vertex="1" parent="1">
          <mxGeometry x="-450" y="200" width="120" height="60" as="geometry" />
        </mxCell>
        <mxCell id="AtcaAhYzGhv9QXCL_KbO-2" value="Number" style="ellipse;whiteSpace=wrap;html=1;rounded=1;" vertex="1" parent="1">
          <mxGeometry x="-570" y="420" width="120" height="60" as="geometry" />
        </mxCell>
        <mxCell id="AtcaAhYzGhv9QXCL_KbO-14" value="" style="edgeStyle=orthogonalEdgeStyle;rounded=0;orthogonalLoop=1;jettySize=auto;html=1;" edge="1" parent="1" source="AtcaAhYzGhv9QXCL_KbO-6" target="AtcaAhYzGhv9QXCL_KbO-13">
          <mxGeometry relative="1" as="geometry" />
        </mxCell>
        <mxCell id="AtcaAhYzGhv9QXCL_KbO-16" value="" style="edgeStyle=orthogonalEdgeStyle;rounded=0;orthogonalLoop=1;jettySize=auto;html=1;" edge="1" parent="1" source="AtcaAhYzGhv9QXCL_KbO-6" target="AtcaAhYzGhv9QXCL_KbO-15">
          <mxGeometry relative="1" as="geometry" />
        </mxCell>
        <mxCell id="AtcaAhYzGhv9QXCL_KbO-18" value="" style="edgeStyle=orthogonalEdgeStyle;rounded=0;orthogonalLoop=1;jettySize=auto;html=1;" edge="1" parent="1" source="AtcaAhYzGhv9QXCL_KbO-6" target="AtcaAhYzGhv9QXCL_KbO-17">
          <mxGeometry relative="1" as="geometry" />
        </mxCell>
        <mxCell id="AtcaAhYzGhv9QXCL_KbO-19" style="edgeStyle=orthogonalEdgeStyle;rounded=0;orthogonalLoop=1;jettySize=auto;html=1;exitX=0;exitY=0;exitDx=0;exitDy=0;" edge="1" parent="1" source="AtcaAhYzGhv9QXCL_KbO-6" target="AtcaAhYzGhv9QXCL_KbO-20">
          <mxGeometry relative="1" as="geometry">
            <mxPoint x="-700" y="150" as="targetPoint" />
          </mxGeometry>
        </mxCell>
        <mxCell id="AtcaAhYzGhv9QXCL_KbO-6" value="wife" style="ellipse;whiteSpace=wrap;html=1;rounded=1;" vertex="1" parent="1">
          <mxGeometry x="-650" y="200" width="120" height="60" as="geometry" />
        </mxCell>
        <mxCell id="AtcaAhYzGhv9QXCL_KbO-8" value="&lt;u&gt;UHD&lt;/u&gt;" style="ellipse;whiteSpace=wrap;html=1;rounded=1;" vertex="1" parent="1">
          <mxGeometry x="-450" y="60" width="120" height="60" as="geometry" />
        </mxCell>
        <mxCell id="AtcaAhYzGhv9QXCL_KbO-11" value="husband" style="ellipse;whiteSpace=wrap;html=1;rounded=1;" vertex="1" parent="1">
          <mxGeometry x="-250" y="200" width="120" height="60" as="geometry" />
        </mxCell>
        <mxCell id="AtcaAhYzGhv9QXCL_KbO-13" value="name" style="ellipse;whiteSpace=wrap;html=1;rounded=1;" vertex="1" parent="1">
          <mxGeometry x="-670" y="60" width="120" height="60" as="geometry" />
        </mxCell>
        <mxCell id="AtcaAhYzGhv9QXCL_KbO-15" value="DOB" style="ellipse;whiteSpace=wrap;html=1;rounded=1;" vertex="1" parent="1">
          <mxGeometry x="-850" y="200" width="120" height="60" as="geometry" />
        </mxCell>
        <mxCell id="AtcaAhYzGhv9QXCL_KbO-17" value="Adhar Number" style="ellipse;whiteSpace=wrap;html=1;rounded=1;" vertex="1" parent="1">
          <mxGeometry x="-780" y="300" width="120" height="60" as="geometry" />
        </mxCell>
        <mxCell id="AtcaAhYzGhv9QXCL_KbO-20" value="Age" style="ellipse;whiteSpace=wrap;html=1;" vertex="1" parent="1">
          <mxGeometry x="-800" y="60" width="120" height="80" as="geometry" />
        </mxCell>
        <mxCell id="AtcaAhYzGhv9QXCL_KbO-21" style="edgeStyle=orthogonalEdgeStyle;rounded=0;orthogonalLoop=1;jettySize=auto;html=1;exitX=0.5;exitY=1;exitDx=0;exitDy=0;" edge="1" parent="1" source="AtcaAhYzGhv9QXCL_KbO-1" target="AtcaAhYzGhv9QXCL_KbO-1">
          <mxGeometry relative="1" as="geometry" />
        </mxCell>
        <mxCell id="AtcaAhYzGhv9QXCL_KbO-31" value="" style="edgeStyle=orthogonalEdgeStyle;rounded=0;orthogonalLoop=1;jettySize=auto;html=1;" edge="1" parent="1" source="AtcaAhYzGhv9QXCL_KbO-23" target="AtcaAhYzGhv9QXCL_KbO-30">
          <mxGeometry relative="1" as="geometry" />
        </mxCell>
        <mxCell id="AtcaAhYzGhv9QXCL_KbO-33" value="" style="edgeStyle=orthogonalEdgeStyle;rounded=0;orthogonalLoop=1;jettySize=auto;html=1;" edge="1" parent="1" source="AtcaAhYzGhv9QXCL_KbO-23" target="AtcaAhYzGhv9QXCL_KbO-32">
          <mxGeometry relative="1" as="geometry">
            <Array as="points">
              <mxPoint x="-160" y="370" />
              <mxPoint x="-160" y="360" />
              <mxPoint x="-120" y="360" />
            </Array>
          </mxGeometry>
        </mxCell>
        <mxCell id="AtcaAhYzGhv9QXCL_KbO-34" value="" style="edgeStyle=orthogonalEdgeStyle;rounded=0;orthogonalLoop=1;jettySize=auto;html=1;" edge="1" parent="1" source="AtcaAhYzGhv9QXCL_KbO-23" target="AtcaAhYzGhv9QXCL_KbO-37">
          <mxGeometry relative="1" as="geometry">
            <mxPoint x="-290" y="410" as="targetPoint" />
            <Array as="points">
              <mxPoint x="-300" y="370" />
              <mxPoint x="-300" y="370" />
            </Array>
          </mxGeometry>
        </mxCell>
        <mxCell id="AtcaAhYzGhv9QXCL_KbO-38" style="edgeStyle=orthogonalEdgeStyle;rounded=0;orthogonalLoop=1;jettySize=auto;html=1;exitX=0;exitY=1;exitDx=0;exitDy=0;" edge="1" parent="1" source="AtcaAhYzGhv9QXCL_KbO-23" target="AtcaAhYzGhv9QXCL_KbO-39">
          <mxGeometry relative="1" as="geometry">
            <mxPoint x="-320" y="450" as="targetPoint" />
          </mxGeometry>
        </mxCell>
        <mxCell id="AtcaAhYzGhv9QXCL_KbO-40" style="edgeStyle=orthogonalEdgeStyle;rounded=0;orthogonalLoop=1;jettySize=auto;html=1;exitX=0;exitY=0;exitDx=0;exitDy=0;" edge="1" parent="1" source="AtcaAhYzGhv9QXCL_KbO-23" target="AtcaAhYzGhv9QXCL_KbO-41">
          <mxGeometry relative="1" as="geometry">
            <mxPoint x="-320" y="312" as="targetPoint" />
          </mxGeometry>
        </mxCell>
        <mxCell id="AtcaAhYzGhv9QXCL_KbO-23" value="Address" style="ellipse;whiteSpace=wrap;html=1;" vertex="1" parent="1">
          <mxGeometry x="-300" y="300" width="120" height="80" as="geometry" />
        </mxCell>
        <mxCell id="AtcaAhYzGhv9QXCL_KbO-25" value="Reaference" style="ellipse;whiteSpace=wrap;html=1;" vertex="1" parent="1">
          <mxGeometry x="-640" y="340" width="100" height="60" as="geometry" />
        </mxCell>
        <mxCell id="AtcaAhYzGhv9QXCL_KbO-27" value="Cunsulting Status" style="ellipse;whiteSpace=wrap;html=1;" vertex="1" parent="1">
          <mxGeometry x="-330" y="100" width="120" height="80" as="geometry" />
        </mxCell>
        <mxCell id="AtcaAhYzGhv9QXCL_KbO-29" value="Email" style="ellipse;whiteSpace=wrap;html=1;" vertex="1" parent="1">
          <mxGeometry x="-570" y="-30" width="120" height="80" as="geometry" />
        </mxCell>
        <mxCell id="AtcaAhYzGhv9QXCL_KbO-30" value="Adress 1" style="ellipse;whiteSpace=wrap;html=1;" vertex="1" parent="1">
          <mxGeometry x="-170" y="280" width="120" height="60" as="geometry" />
        </mxCell>
        <mxCell id="AtcaAhYzGhv9QXCL_KbO-32" value="Address2" style="ellipse;whiteSpace=wrap;html=1;" vertex="1" parent="1">
          <mxGeometry x="-180" y="380" width="120" height="80" as="geometry" />
        </mxCell>
        <mxCell id="AtcaAhYzGhv9QXCL_KbO-37" value="City/village" style="ellipse;whiteSpace=wrap;html=1;" vertex="1" parent="1">
          <mxGeometry x="-310" y="440" width="120" height="80" as="geometry" />
        </mxCell>
        <mxCell id="AtcaAhYzGhv9QXCL_KbO-39" value="State" style="ellipse;whiteSpace=wrap;html=1;" vertex="1" parent="1">
          <mxGeometry x="-420" y="490" width="120" height="80" as="geometry" />
        </mxCell>
        <mxCell id="AtcaAhYzGhv9QXCL_KbO-41" value="Zip" style="ellipse;whiteSpace=wrap;html=1;" vertex="1" parent="1">
          <mxGeometry x="-410" y="340" width="120" height="80" as="geometry" />
        </mxCell>
      </root>
    </mxGraphModel>
  </diagram>
</mxfile>
